<?xml version="1.0" encoding="utf-8"?>
<!-- Generator: Adobe Illustrator 18.1.0, SVG Export Plug-In . SVG Version: 6.00 Build 0)  -->
<svg version="1.1" id="Layer_1" xmlns="http://www.w3.org/2000/svg" xmlns:xlink="http://www.w3.org/1999/xlink" x="0px" y="0px"
	 viewBox="0 0 108.413 32.109" enable-background="new 0 0 108.413 32.109" xml:space="preserve">
<image display="none" overflow="visible" width="1792" height="1066" xlink:href="../Screen Shot 2014-11-16 at 7.13.35 PM.png"  transform="matrix(1 0 0 1 -438.6997 -106.5262)">
</image>
<g>
	<path fill="#4F514F" d="M0.617,12.399C1.438,5.714,3.613,0.196,11.213,0.196c7.599,0,8.451,5.518,7.631,12.203
		c-0.82,6.686-3.028,12.204-10.627,12.204C0.617,24.603-0.202,19.084,0.617,12.399z M4.243,12.399
		c-0.694,5.612-0.095,8.987,4.384,8.987c4.478,0,5.898-3.375,6.59-8.987c0.663-5.612,0.095-8.986-4.383-8.986
		C6.357,3.412,4.905,6.786,4.243,12.399z"/>
	<path fill="#4F514F" d="M24.36,23.373l-1.072,8.735h-3.53l2.9-23.651h2.081l0.409,1.261c1.514-1.009,3.185-1.64,5.299-1.64
		c4.604,0,5.928,3.091,5.298,8.263c-0.632,5.14-2.713,8.262-7.316,8.262C26.853,24.603,25.401,24.098,24.36,23.373z M32.181,16.341
		c0.378-2.933,0.189-5.267-2.901-5.267c-1.672,0-2.868,0.568-3.531,0.914l-1.072,8.703c0.6,0.348,1.641,0.915,3.311,0.915
		C31.077,21.607,31.834,19.241,32.181,16.341z"/>
	<path fill="#4F514F" d="M41.734,17.633c-0.221,2.365,0.441,3.91,3.657,3.91c1.987,0,3.658-0.346,5.14-0.945l-0.378,3.026
		c-1.892,0.758-3.973,0.979-5.677,0.979c-5.265,0-6.779-3.154-6.147-8.262c0.63-5.077,2.868-8.263,8.072-8.263
		c4.636,0,6.148,2.176,5.802,4.889c-0.315,2.712-2.334,4.666-6.969,4.666H41.734z M45.486,15.173c1.861,0,3.091-0.599,3.279-2.018
		c0.158-1.419-0.945-2.018-2.806-2.018c-2.587,0-3.501,1.672-3.91,4.036H45.486z"/>
	<path fill="#4F514F" d="M63.554,24.224l1.325-10.815c0.189-1.609-0.536-2.334-2.208-2.334c-1.64,0-2.838,0.441-3.752,0.914
		l-1.482,12.235h-3.532l1.925-15.767h2.081l0.409,1.261c1.734-1.103,3.595-1.64,5.299-1.64c4.004,0,5.203,1.987,4.824,5.014
		l-1.356,11.132H63.554z"/>
	<path fill="#4F514F" d="M72.131,8.582l0.441-3.373c1.356-0.631,4.004-1.072,6.433-1.072c5.928,0,8.01,2.523,7.537,6.464
		c-0.316,2.396-1.83,4.258-3.69,5.108c2.113,0.569,3.469,2.618,3.121,5.519c-0.534,4.321-3.437,7.315-9.933,7.315
		c-2.427,0-4.887-0.409-6.243-1.071l0.409-3.374c1.893,0.852,3.911,1.166,6.087,1.166c4.1,0,5.708-1.702,5.992-4.036
		c0.346-2.775-1.073-3.689-4.195-3.689h-4.414l0.379-3.217h4.477c2.586,0,4.005-1.388,4.258-3.374
		c0.283-2.302-0.945-3.563-4.573-3.563C76.105,7.385,74.18,7.763,72.131,8.582z"/>
	<path fill="#4F514F" d="M97.449,4.137L94.99,24.224h-3.563l2.019-16.492l-3.941,0.126l0.252-2.113l5.991-1.607H97.449z"/>
	<path fill="#4F514F" d="M108.296,4.137l-2.459,20.087h-3.563l2.018-16.492l-3.941,0.126l0.251-2.113l5.992-1.607H108.296z"/>
</g>
</svg>
